<svg width="25" height="24" viewBox="0 0 25 24" fill="none" xmlns="http://www.w3.org/2000/svg">
<path d="M18.1667 20.75H6.16669C5.43734 20.75 4.73787 20.4603 4.22214 19.9445C3.70642 19.4288 3.41669 18.7293 3.41669 18V6C3.41669 5.27065 3.70642 4.57118 4.22214 4.05546C4.73787 3.53973 5.43734 3.25 6.16669 3.25H12.1667C12.3656 3.25 12.5564 3.32902 12.697 3.46967C12.8377 3.61032 12.9167 3.80109 12.9167 4C12.9167 4.19891 12.8377 4.38968 12.697 4.53033C12.5564 4.67098 12.3656 4.75 12.1667 4.75H6.16669C5.83517 4.75 5.51722 4.8817 5.2828 5.11612C5.04838 5.35054 4.91669 5.66848 4.91669 6V18C4.91669 18.3315 5.04838 18.6495 5.2828 18.8839C5.51722 19.1183 5.83517 19.25 6.16669 19.25H18.1667C18.4982 19.25 18.8162 19.1183 19.0506 18.8839C19.285 18.6495 19.4167 18.3315 19.4167 18V12C19.4167 11.8011 19.4957 11.6103 19.6364 11.4697C19.777 11.329 19.9678 11.25 20.1667 11.25C20.3656 11.25 20.5564 11.329 20.697 11.4697C20.8377 11.6103 20.9167 11.8011 20.9167 12V18C20.9167 18.7293 20.627 19.4288 20.1112 19.9445C19.5955 20.4603 18.896 20.75 18.1667 20.75Z" fill="#003A63"/>
<path d="M20.1667 8.75C19.9686 8.74741 19.7793 8.66756 19.6392 8.52747C19.4991 8.38737 19.4193 8.19811 19.4167 8V4.75H16.1667C15.9678 4.75 15.777 4.67098 15.6364 4.53033C15.4957 4.38968 15.4167 4.19891 15.4167 4C15.4167 3.80109 15.4957 3.61032 15.6364 3.46967C15.777 3.32902 15.9678 3.25 16.1667 3.25H20.1667C20.3648 3.25259 20.5541 3.33244 20.6942 3.47253C20.8342 3.61263 20.9141 3.80189 20.9167 4V8C20.9141 8.19811 20.8342 8.38737 20.6942 8.52747C20.5541 8.66756 20.3648 8.74741 20.1667 8.75Z" fill="#003A63"/>
<path d="M13.6667 11.2499C13.4737 11.2352 13.2943 11.1454 13.1667 10.9999C13.0437 10.8624 12.9757 10.6844 12.9757 10.4999C12.9757 10.3155 13.0437 10.1374 13.1667 9.99994L19.6667 3.49994C19.7354 3.42625 19.8182 3.36715 19.9102 3.32616C20.0022 3.28517 20.1015 3.26312 20.2022 3.26135C20.3029 3.25957 20.4029 3.2781 20.4963 3.31582C20.5897 3.35354 20.6745 3.40968 20.7457 3.4809C20.8169 3.55212 20.8731 3.63695 20.9108 3.73034C20.9485 3.82373 20.9671 3.92376 20.9653 4.02446C20.9635 4.12516 20.9415 4.22448 20.9005 4.31648C20.8595 4.40848 20.8004 4.49128 20.7267 4.55994L14.1667 10.9999C14.0391 11.1454 13.8596 11.2352 13.6667 11.2499Z" fill="#003A63"/>
</svg>
