<svg width="24" height="24" viewBox="0 0 24 24" fill="none" xmlns="http://www.w3.org/2000/svg">
<path d="M5.24998 19.5H18.75C18.9374 19.4997 19.1182 19.5695 19.2567 19.6958C19.3952 19.822 19.4814 19.9956 19.4983 20.1822C19.5152 20.3689 19.4617 20.5551 19.3481 20.7042C19.2346 20.8534 19.0694 20.9546 18.885 20.988L18.75 21H5.24998C5.06256 21.0003 4.8818 20.9305 4.7433 20.8042C4.6048 20.678 4.5186 20.5044 4.50167 20.3178C4.48473 20.1311 4.53829 19.9449 4.65181 19.7958C4.76532 19.6466 4.93056 19.5454 5.11498 19.512L5.24998 19.5H18.75H5.24998ZM11.865 1.512L12 1.5C12.1755 1.49994 12.3455 1.56146 12.4804 1.67383C12.6152 1.78621 12.7064 1.94233 12.738 2.115L12.75 2.25V15.438L16.773 11.4165C16.8971 11.2923 17.0608 11.2155 17.2357 11.1996C17.4106 11.1837 17.5855 11.2297 17.73 11.3295L17.835 11.4165C17.959 11.5408 18.0355 11.7046 18.0511 11.8795C18.0667 12.0544 18.0205 12.2292 17.9205 12.3735L17.8335 12.477L12.531 17.781C12.4067 17.905 12.2428 17.9815 12.068 17.9971C11.8931 18.0127 11.7183 17.9665 11.574 17.8665L11.469 17.781L6.16648 12.477C6.0336 12.3447 5.95509 12.1675 5.94642 11.9802C5.93775 11.7929 5.99955 11.6091 6.11964 11.4651C6.23973 11.3211 6.4094 11.2273 6.5952 11.2022C6.78101 11.1771 6.96948 11.2225 7.12348 11.3295L7.22698 11.4165L11.25 15.438V2.25C11.2499 2.07446 11.3114 1.90446 11.4238 1.76961C11.5362 1.63476 11.6923 1.5436 11.865 1.512L12 1.5L11.865 1.512Z" fill="white"/>
</svg>
