<svg id="Vrstva_1" xmlns="http://www.w3.org/2000/svg" viewBox="0 0 166.8 54.5"><style>.st0{fill:#0000dc}</style><path class="st0" d="M0 .1h3.5v22.4H0V.1zm3.7 0h1.1L7 22.5H5.8L3.7.1zm5.6 0h1.2L8.3 22.5H7.1L9.3.1zm1.3 0h3.5v22.4h-3.5V.1zM27.4.1v17.1c0 1.2 1.1 2.1 2.1 2.1s2.1-.9 2.1-2.1V.1h3.5v17.2c0 3-2.7 5.3-5.6 5.3s-5.7-2.3-5.7-5.3V.1h3.6zM49.5.1v22.4H46V.1h3.5zm1.3 0l3.3 22.4h-1.2L49.6.1h1.2zm7 0v22.4h-3.5V.1h3.5zM72.5 21.2V1.3h-3V.1h9.6v1.2h-3v19.9h3v1.2h-9.6v-1.2h3z"/><g><path class="st0" d="M.3 32.1H2v22.4H.3V32.1zm1.8 0h1.2l3.8 22.4H5.9L2.1 32.1zm8.8 0H12L8.2 54.5H7.1l3.8-22.4zm1.3 0h1.7v22.4h-1.7V32.1zM24.6 32.1h10.7v1.6h-9v8.2h8.6v1.6h-8.6v9.4h9v1.6H24.6V32.1zM46.5 32.1h5.7c2.9 0 5.4 2.4 5.4 5.3v11.7c0 3-2.5 5.3-5.4 5.3h-5.7V32.1zm5.7 20.7c2 0 3.7-1.6 3.7-3.7V37.4c0-2.1-1.7-3.7-3.7-3.7h-4v19.1h4z"/></g><g><path class="st0" d="M93.2 9.3V0h1.9v9.3h-1.9zM103.1 5.2v4.1h-1.8V5.4c0-1-.4-1.5-1.2-1.5-.8 0-1.3.6-1.3 1.8v3.5H97V2.6h1.7v.8c.4-.6 1.1-1 1.9-1 1.6.1 2.5 1 2.5 2.8zM110.1 4.7h-1.7c0-.7-.4-1-1-1s-.9.2-.9.6c0 .5.4.6 1.4.8 1.2.3 2.5.6 2.5 2.2 0 1.2-1.1 2.1-2.9 2.1s-3-.8-3-2.4h1.8c0 .7.4 1 1.2 1 .6 0 1-.2 1-.6 0-.6-.5-.7-1.5-1-1.1-.3-2.3-.5-2.3-2.1 0-1.2 1.1-2 2.7-2 1.6.2 2.7 1 2.7 2.4zM115.1 7.9v1.4c-.2.1-.7.1-1 .1-1.5 0-2.2-.6-2.2-2.1V4.1h-1.1V2.7h1.1V1h1.8v1.7h1.3v1.4h-1.3v2.8c0 .7.2 1 .9 1h.5zM116.3 1.6V0h1.8v1.6h-1.8zm0 7.7V2.7h1.8v6.6h-1.8zM123.3 7.9v1.4c-.2.1-.6.1-1 .1-1.5 0-2.2-.6-2.2-2.1V4.1H119V2.7h1.1V1h1.8v1.7h1.3v1.4h-1.3v2.8c0 .7.2 1 .9 1h.5zM124.4 6.7V2.6h1.8v3.9c0 1 .4 1.5 1.2 1.5s1.3-.6 1.3-1.8V2.7h1.8v6.6h-1.7v-.8c-.4.6-1.1 1-1.9 1-1.5 0-2.5-1-2.5-2.8zM135.7 7.9v1.4c-.2.1-.7.1-1 .1-1.5 0-2.2-.6-2.2-2.1V4.1h-1.1V2.7h1.1V1h1.8v1.7h1.3v1.4h-1.3v2.8c0 .7.2 1 .9 1h.5zM94.8 19.1c.4-.6 1.1-1 1.9-1 1.7 0 2.7 1.4 2.7 3.5s-1.1 3.5-2.7 3.5c-.8 0-1.5-.4-1.9-1v.8H93v-9.3h1.8v3.5zm-.1 2.5c0 1.3.6 2.1 1.4 2.1.9 0 1.4-.8 1.4-2.1s-.6-2.1-1.4-2.1c-.8 0-1.4.8-1.4 2.1zM100.8 17.2v-1.6h1.8v1.6h-1.8zm0 7.7v-6.6h1.8v6.6h-1.8zM110.7 21.6c0 2.1-1.3 3.5-3.4 3.5s-3.4-1.4-3.4-3.5 1.3-3.5 3.4-3.5 3.4 1.3 3.4 3.5zm-4.9 0c0 1.3.6 2.1 1.5 2.1s1.5-.8 1.5-2.1-.6-2.1-1.5-2.1-1.5.8-1.5 2.1zM117.2 20.3h-1.7c0-.7-.4-1-1-1s-.9.2-.9.6c0 .5.4.6 1.4.8 1.2.3 2.5.6 2.5 2.2 0 1.2-1.1 2.1-2.9 2.1-1.8 0-3-.8-3-2.4h1.8c0 .7.4 1 1.2 1 .6 0 1-.2 1-.6 0-.6-.5-.7-1.5-1-1.1-.3-2.3-.5-2.3-2.1 0-1.2 1.1-2 2.7-2 1.7.2 2.7 1 2.7 2.4zM122.3 23.5v1.4c-.2.1-.6.1-1 .1-1.5 0-2.2-.6-2.2-2.1v-3.2H118v-1.4h1.1v-1.7h1.8v1.7h1.3v1.4h-1.3v2.9c0 .7.2 1 .9 1 .2-.1.3-.1.5-.1zM128.9 20.7v2.4c0 .8.1 1.4.2 1.8h-1.6c-.1-.3-.1-.6-.1-.9-.5.7-1.2 1-2.1 1-1.4 0-2.2-.9-2.2-2s.7-1.8 2.6-2.1c.5-.1 1.2-.2 1.7-.2v-.2c0-.8-.4-1.2-1.1-1.2-.7 0-1.1.4-1.1 1h-1.8c.1-1.3 1-2.3 2.9-2.3 1.6.1 2.6 1 2.6 2.7zm-1.8 1.2c-.4 0-.9.1-1.3.1-.8.1-1.1.4-1.1.9s.3.8 1 .8c.4 0 .8-.1 1-.4.3-.3.4-.7.4-1.4zM134 23.5v1.4c-.2.1-.6.1-1 .1-1.5 0-2.2-.6-2.2-2.1v-3.2h-1v-1.4h1.1v-1.7h1.8v1.7h1.3v1.4h-1.3v2.9c0 .7.2 1 .9 1 .1-.1.3-.1.4-.1zM135.2 17.2v-1.6h1.8v1.6h-1.8zm0 7.7v-6.6h1.8v6.6h-1.8zM144 20.3h-1.7c0-.7-.4-1-1-1s-.9.2-.9.6c0 .5.4.6 1.4.8 1.2.3 2.5.6 2.5 2.2 0 1.2-1.1 2.1-2.9 2.1-1.8 0-3-.8-3-2.4h1.8c0 .7.4 1 1.2 1 .6 0 1-.2 1-.6 0-.6-.5-.7-1.5-1-1.1-.3-2.3-.5-2.3-2.1 0-1.2 1.1-2 2.7-2 1.7.2 2.7 1 2.7 2.4zM149.1 23.5v1.4c-.2.1-.7.1-1 .1-1.5 0-2.2-.6-2.2-2.1v-3.2h-1.1v-1.4h1.1v-1.7h1.8v1.7h1.3v1.4h-1.3v2.9c0 .7.2 1 .9 1 .2-.1.3-.1.5-.1zM150.3 17.2v-1.6h1.8v1.6h-1.8zm0 7.7v-6.6h1.8v6.6h-1.8zM157.9 24.9l-2.2-3.1v3.1h-1.9v-9.3h1.8v5.3l2.1-2.7h2.1l-2.5 3 2.8 3.6h-2.2v.1zM164.3 24.9c-.7 1.9-1.5 2.4-3.1 2.4-.3 0-.7 0-.9-.1v-1.5c.2.1.4.1.7.1.7 0 1.2-.4 1.2-1.1 0-.2-.1-.5-.3-1.2l-1.9-5.4h2l.7 2.2c.3.9.5 1.8.7 2.8.2-.9.5-1.9.8-2.8l.7-2.2h1.9l-2.5 6.8zM98.4 36.3v2.4c0 .8.1 1.4.2 1.8H97c-.1-.3-.1-.6-.1-.9-.5.7-1.2 1-2.1 1-1.4 0-2.2-.9-2.2-2s.6-1.8 2.6-2.1c.5-.1 1.2-.2 1.7-.2v-.2c0-.8-.4-1.2-1.1-1.2s-1.1.4-1.1 1h-1.8c.1-1.3 1-2.3 2.9-2.3 1.6.1 2.6 1 2.6 2.7zm-1.8 1.2c-.4 0-.9.1-1.3.1-.8.1-1.1.4-1.1.9s.3.8 1 .8c.4 0 .8-.1 1-.4.3-.3.4-.7.4-1.4zM108.5 36.3v2.4c0 .8.1 1.4.2 1.8h-1.6c-.1-.3-.1-.6-.1-.9-.5.7-1.2 1-2.1 1-1.4 0-2.2-.9-2.2-2s.6-1.8 2.6-2.1c.5-.1 1.2-.2 1.7-.2v-.2c0-.8-.4-1.2-1.1-1.2s-1.1.4-1.1 1h-2c.1-1.3 1-2.3 2.9-2.3 1.8.1 2.8 1 2.8 2.7zm-1.7 1.2c-.4 0-.9.1-1.3.1-.8.1-1.1.4-1.1.9s.3.8 1 .8c.4 0 .8-.1 1-.4.3-.3.4-.7.4-1.4zM116.3 36.4v4.1h-1.8v-3.9c0-1-.4-1.5-1.2-1.5s-1.3.6-1.3 1.8v3.5h-1.8v-6.5h1.7v.8c.4-.6 1.1-1 1.9-1 1.5 0 2.5.9 2.5 2.7zM123.4 36.3v2.4c0 .8.1 1.4.2 1.8H122c-.1-.3-.1-.6-.1-.9-.5.7-1.2 1-2.1 1-1.4 0-2.2-.9-2.2-2s.7-1.8 2.6-2.1c.5-.1 1.2-.2 1.7-.2v-.2c0-.8-.4-1.2-1.1-1.2-.7 0-1.1.4-1.1 1h-1.8c.1-1.3 1-2.3 2.9-2.3 1.7.1 2.6 1 2.6 2.7zm-1.7 1.2c-.4 0-.9.1-1.3.1-.8.1-1.1.4-1.1.9s.3.8 1 .8c.4 0 .8-.1 1-.4.3-.3.4-.7.4-1.4zM125.1 40.5v-9.3h1.8v9.3h-1.8zM132.1 40.5c-.7 1.9-1.5 2.4-3.1 2.4-.3 0-.7 0-.9-.1v-1.5c.2.1.4.1.7.1.7 0 1.2-.4 1.2-1.1 0-.2-.1-.5-.3-1.2l-1.9-5.4h1.9l.7 2.2c.3.9.5 1.8.7 2.8.2-.9.5-1.9.8-2.8l.7-2.2h1.9l-2.4 6.8zm-2.1-7.4l1-1.9h2.2l-1.8 1.9H130zM136.9 39h3.4v1.4h-5.6v-1.5l3.2-3.7h-3.1v-1.3h5.3v1.5l-3.2 3.6z"/></g></svg>