<!-- Generated by IcoMoon.io -->
<svg version="1.1" xmlns="http://www.w3.org/2000/svg" width="7396" height="1024" viewBox="0 0 7396 1024">
<title>web_studio</title>
<g id="icomoon-ignore">
</g>
<path fill="#0b2540" d="M3973.78 848.93c-56.155 0-109.005-9.91-158.555-26.425-49.545-16.515-92.49-42.94-132.13-75.975l95.795-112.31c62.76 49.55 128.825 72.67 201.495 72.67 23.125 0 39.64-3.3 52.855-9.91 13.21-6.605 16.515-16.515 16.515-29.724v-3.305c0-6.605 0-13.215-3.305-16.515-3.3-3.305-9.91-9.91-16.515-13.215-6.605-3.3-19.82-9.91-33.030-13.21-13.215-3.305-29.73-9.91-52.855-13.215-33.030-6.605-62.76-16.515-92.49-26.425s-52.85-19.82-72.67-36.336c-19.82-13.213-36.335-33.032-49.55-52.851-13.21-19.82-16.515-49.549-16.515-79.278v-3.303c0-29.729 6.61-56.155 16.515-79.278 9.91-23.122 26.431-46.245 46.245-62.762 19.82-16.516 46.245-29.729 75.975-39.638s62.766-13.213 99.1-13.213c52.85 0 99.095 6.607 142.034 19.82 42.945 13.213 79.28 33.032 112.31 62.761l-85.885 122.22c-29.724-19.82-56.149-36.336-85.879-46.245s-59.46-16.516-85.885-16.516c-19.82 0-36.335 3.303-46.245 9.909s-16.515 16.516-16.515 29.729c0 6.607 0 13.213 3.3 19.82 3.305 6.607 9.91 9.909 16.521 13.212 6.605 3.304 19.814 9.91 33.030 13.213s29.73 9.91 52.85 13.213c36.335 6.607 66.065 16.516 95.795 26.426s52.85 23.122 72.67 36.336c19.82 13.212 36.335 33.032 46.245 52.851s16.521 46.245 16.521 75.975v3.3c0 33.035-6.61 59.46-16.521 85.885-13.21 23.125-29.73 46.245-49.545 62.766-23.125 16.515-49.55 29.724-79.28 39.634-29.73 6.61-62.76 9.91-102.4 9.91z"></path>
<path fill="#0b2540" d="M4498.995 373.271h-184.98v-151.949h541.73v148.646h-184.986v465.752h-171.765v-462.449z"></path>
<path fill="#0b2540" d="M5248.825 852.241c-42.94 0-82.58-6.61-118.915-16.521s-66.065-29.724-89.185-52.85c-23.125-23.12-42.945-52.85-56.155-89.185-13.215-36.335-19.82-75.975-19.82-125.524v-346.839h175.070v343.536c0 46.248 9.91 79.278 29.73 99.098 19.82 23.12 46.245 33.030 82.58 33.030s62.76-9.91 82.58-29.724c19.82-19.82 29.73-52.855 29.73-95.795v-350.143h175.070v340.233c0 49.551-6.605 92.491-19.82 128.825-13.21 36.335-33.030 66.065-59.455 89.185-26.425 23.125-56.155 39.64-89.19 52.855-39.634 13.21-79.275 19.82-122.22 19.82z"></path>
<path fill="#0b2540" d="M5678.245 221.323h237.858c56.149 0 105.7 6.607 148.594 23.122 42.951 16.517 79.303 36.336 109.056 62.762 29.696 26.426 52.85 59.458 69.348 95.793s23.097 79.278 23.097 122.22v3.303c0 46.243-6.599 85.883-23.097 122.218s-39.652 69.37-69.348 99.1c-29.753 26.425-66.105 49.545-109.056 66.065-42.894 16.515-92.444 23.12-148.594 23.12h-234.559v-617.703h-3.3zM5919.403 687.076c52.85 0 92.444-13.21 125.497-39.634 29.753-26.431 46.251-66.065 46.251-115.615v-3.304c0-49.549-16.498-89.187-46.251-115.613s-72.647-39.638-125.497-39.638h-69.404v313.804h69.404z"></path>
<path fill="#0b2540" d="M6398.35 221.323h171.748v617.703h-171.748v-617.703z"></path>
<path fill="#0b2540" d="M7032.548 852.241c-46.251 0-92.444-9.91-132.096-26.425s-76.004-39.64-105.7-69.365c-29.753-29.73-52.85-62.766-69.404-102.4-16.498-39.64-26.396-79.28-26.396-125.525v-3.303c0-42.942 9.899-85.884 26.396-125.522 16.555-39.639 39.652-72.671 69.404-102.4 29.696-29.73 66.048-52.852 105.7-69.368s85.845-26.426 132.096-26.426c46.251 0 92.501 9.91 132.153 26.426s75.947 39.638 105.7 69.368c29.753 29.729 52.85 62.761 69.348 102.4 16.555 39.638 26.453 79.277 26.453 125.522v3.303c0 42.94-9.899 85.885-26.453 125.525-16.498 39.634-39.595 72.67-69.348 102.4-29.753 29.724-66.048 52.85-105.7 69.365s-82.603 26.425-132.153 26.425zM7035.847 696.991c23.154 0 46.251-3.305 66.105-13.215 19.797-9.91 36.295-19.82 49.55-36.335 13.198-16.515 23.097-33.030 32.996-52.85 6.599-19.82 9.956-39.639 9.956-62.762v-3.304c0-23.122-3.356-42.942-9.956-62.761s-19.797-36.336-32.996-52.852c-13.255-16.516-29.753-26.425-49.55-36.336-19.854-9.909-39.652-13.212-66.105-13.212-23.097 0-46.194 3.303-62.748 13.212-19.797 9.91-36.295 19.82-49.55 36.336-13.198 16.517-23.097 33.033-32.996 52.852-6.656 19.819-9.956 39.638-9.956 62.761v3.304c0 23.122 3.3 42.941 9.956 62.762 6.599 19.82 19.797 36.335 32.996 52.85 13.255 16.515 29.753 26.425 49.55 36.335 16.555 9.91 36.352 13.215 62.748 13.215z"></path>
<path fill="#0b2540" d="M1133.005 208.101h495.485v145.342h-327.020v92.491h297.29v135.431h-297.29v99.095h330.325v145.345h-498.79v-617.704z"></path>
<path fill="#0b2540" d="M1760.62 208.101h317.11c39.634 0 72.67 3.303 99.095 13.213 29.73 9.909 49.55 23.122 69.365 39.638 13.215 13.213 23.125 26.426 29.73 42.942 6.61 16.516 9.91 36.336 9.91 56.155v3.303c0 36.336-9.91 66.064-26.425 85.884-16.515 23.122-39.64 39.638-69.37 49.549 36.341 13.213 66.065 29.729 89.19 52.851 23.12 23.124 33.030 56.153 33.030 95.793v3.305c0 52.85-19.82 95.79-62.76 125.52-39.64 29.73-99.095 46.245-171.765 46.245h-317.11v-614.399zM2034.785 452.539c26.425 0 46.245-3.303 59.46-13.212 13.21-9.91 19.82-23.122 19.82-39.639v-3.303c0-16.516-6.61-29.729-19.82-39.639-13.215-9.909-33.035-13.212-59.46-13.212h-112.31v109.006h112.31zM2061.21 687.070c26.425 0 46.245-3.305 59.46-13.215 13.21-9.91 19.82-23.12 19.82-42.94v-3.305c0-16.515-6.61-29.73-19.82-39.64-13.215-9.91-36.335-16.515-62.76-16.515h-128.825v112.31h132.124v3.305z"></path>
<path fill="#0b2540" d="M1043.82 208.101h-165.16l-135.435 412.904-135.43-412.904h-168.466l-138.736 416.204-135.432-412.901h-165.162l191.587 624.311h218.013l112.309-363.356 112.311 363.356h218.010l191.59-627.614z"></path>
<path fill="#d33d61" d="M2771.405 0h128.825l-369.96 1024h-128.825l369.96-1024z"></path>
<path fill="#d33d61" d="M3091.82 0h128.825l-373.265 1024h-128.825l373.265-1024z"></path>
<path fill="#d33d61" d="M3432.050 0h128.831l-369.966 1024h-128.825l369.96-1024z"></path>
</svg>
