<svg width="40" height="40" viewBox="0 0 40 40" fill="none" xmlns="http://www.w3.org/2000/svg">
<rect width="40" height="40" transform="translate(40 40) rotate(180)" fill="#2E5D7F"/>
<path d="M21.7173 24.1684L28.5717 16.7431C28.6862 16.6192 28.75 16.4546 28.75 16.2834C28.75 16.1123 28.6862 15.9476 28.5717 15.8238L28.564 15.8158C28.5085 15.7555 28.4417 15.7075 28.3677 15.6747C28.2937 15.6419 28.214 15.625 28.1335 15.625C28.053 15.625 27.9733 15.6419 27.8992 15.6747C27.8252 15.7075 27.7585 15.7555 27.703 15.8158L21.2487 22.808L14.797 15.8158C14.7415 15.7555 14.6748 15.7075 14.6008 15.6747C14.5267 15.6419 14.4471 15.625 14.3665 15.625C14.286 15.625 14.2063 15.6419 14.1323 15.6747C14.0583 15.7075 13.9915 15.7555 13.936 15.8158L13.9283 15.8238C13.8138 15.9477 13.75 16.1123 13.75 16.2834C13.75 16.4546 13.8138 16.6192 13.9283 16.7431L20.7827 24.1684C20.843 24.2337 20.9155 24.2856 20.9958 24.3212C21.0761 24.3567 21.1626 24.375 21.25 24.375C21.3374 24.375 21.4239 24.3567 21.5042 24.3212C21.5845 24.2856 21.657 24.2337 21.7173 24.1684Z" fill="white"/>
</svg>
