<svg xmlns="http://www.w3.org/2000/svg" width="248.6" height="164" viewBox="0 0 248.6 164">
  <path fill-rule="evenodd" clip-rule="evenodd" fill="#8FADCD" d="M94.1 133.5l16.7-1.4c-12.6 19.4-17 24.7-38.2 30.6-5.7 1.6-11.4 1.2-17 1.2-14.2 0-22.4-4.9-31.7-13.5-9.2-8.6-13.9-19.6-13.9-32.9 0-17.7 8-35.7 22.7-53 16.2-19 34.3-28 55.4-28 6.9 0 13.2 1.2 18.9 3.5 16.6 6.8 6.7 4.5 17.3-1.1l5 .5L119 82.9l-5.1-.8-.3-4.9c-.9-12.8.3-9.4-3.3-15.1-3.6-5.7-9.6-11.5-18.1-11.5-14.9 0-26.2 7.1-38.7 28.1-6.6 11.1-16.7 47.8-7.9 59.2 14.7 19.6 37.2 17.3 48.5-4.4zM64.5 0l13.8.6L89.6 16l19.2-16h14.9L99.8 33.4H74.4L64.5 0zm93.3 145.7c-.2 1.1-.3 2.7-.3 3.5 0 8.2 13.9 1.5 13.4 6l-.2 2-.8 5.6-59.5-.5 1.4-7.9c2.1-.1 5.9.2 8.1-.5 10.3-3.4 9.6-10.6 11.6-17.4L155 56.9l-2.8-5-9.9-3.1.4-6h63.1c8.7 0 27.7 12.1 26.7 27.4-1.1 16.4-21.2 32.1-34.5 35.2l18.6 45.9 12.7 4.7-1 6.5-39-.1-23.2-49.9c-4.6 14.6-5.6 18.3-8.3 33.2zM171 96.1c1.6.1 1.7.5 4.7.5 10 0 13.5-3.8 16.7-7 5.4-5.4 6.4-12.9 8.8-25.8 1.5-8.2-15.3-15.2-17.2-9.1l-13 41.4z"/>
  <path fill-rule="evenodd" clip-rule="evenodd" fill="#2A3979" d="M11.5 73.4c1.5-6.5-10.3-3.6-9.8-6.7l.3-2.1 35 .1-.9 3.4c-3.5.1-7.3.5-8.9 2-6.3 5.8-10.5 31.6-12.8 45-4.8 28.2 21.7 24.8 28.8 16.2 8.9-10.6 13.9-33.2 18.2-49.7 2.1-8.2 4.5-13.9-5.2-13.3v-3.6l24.8-.1-.1 4.3c-3.2.3-8.6-1-9.8 2.1-7.2 17.7-10.2 52.8-23.1 64.9-5.4 5.1-12.2 8.5-22.6 8.5-8.7 0-17.2-4.9-21.3-8.7-11.7-10.5 5.5-53.8 7.4-62.3zm30.6-12.9l-4.5-.4c3.9-4.3 15.8-22.7 25.5-22.8.9 0 8.7.3 7.1 3.1-2.7 4.8-26.3 18.5-28.1 20.1zm87.4 10c-10.2.3-30.8-2.3-35.9 6.6l-3.8 6.5-3.4-.6 5.2-18.3 60.3-.1-62 72.3 24.9-.3c7.1-.1 12.1-8 17.8-14.6l4.1.1-7.9 22.2-60.3-.2.5-4.7 60.5-68.9zm37 68l8.8.4-1.5 5.3h-31.5l1.5-5.4 8.2-.5 14.7-69.5-7.3.1.2-4.7H190l-.7 4.7h-7.7l-15.1 69.6zm19.3 5.1l-4.1-.9 6.6-28.6 3.7 1.3c.1 7.7 1.9 10.2 4.3 14.9 10.6 20.9 46.6-1 17.4-21.1-10.7-7.3-18.1-14.7-16.2-26.9 3.4-22.3 26.2-23.2 43.1-13.1l4-5.3 4 .3-4.4 25.7-5.7-1.1c5.3-18.2-16-25.7-27-14.1-8.4 8.9 6.7 19.8 15.4 25.3 13.6 8.6 13.7 25.8 5 37.5-7.6 10.1-26.1 9.2-40.9.5l-5.2 5.6z"/>
</svg>