<svg width="290" height="60" viewBox="0 0 290 60" fill="none" xmlns="http://www.w3.org/2000/svg">
<path d="M27.6398 17.3248H21.1907V42.6746H27.7742C32.0467 42.6746 35.2981 41.5055 37.5553 39.1937C39.8125 36.8819 40.9411 33.8261 40.9411 30.0263C40.9411 26.0936 39.7856 22.9846 37.5016 20.726C35.2175 18.4674 31.9392 17.3248 27.6398 17.3248Z" fill="#FDBB30"/>
<path d="M0.876282 0V60H61.5515V0H0.876282ZM45.2138 44.6944C41.1562 48.2285 35.352 50.0089 27.8281 50.0089H11.1142V9.99114H28.9567C35.8357 9.99114 41.2906 11.8512 45.2944 15.5979C49.2982 19.318 51.3135 24.1541 51.3135 30.0797C51.3135 36.271 49.2713 41.1603 45.2138 44.6944Z" fill="#FDBB30"/>
<path d="M100.461 35.1025H112.956L106.4 19.5578L100.461 35.1025Z" fill="#C2CD23"/>
<path d="M76.7337 0V60H137.409V0H76.7337ZM119.217 50.0089L115.885 42.0903H97.7739L94.7643 49.9823H84.0964L100.434 9.99114H112.096L130.073 49.9823H119.217V50.0089Z" fill="#C2CD23"/>
<path d="M152.591 0V60H213.266V0H152.591ZM202.625 17.3251H187.98V49.9823H177.904V17.3251H163.259V9.99114H202.625V17.3251Z" fill="#003A63"/>
<path d="M252.176 35.1025H264.671L258.114 19.5578L252.176 35.1025Z" fill="#D31145"/>
<path d="M228.449 0V60H289.124V0H228.449ZM270.959 50.0089L267.627 42.1169H249.516L246.479 50.0089H235.811L252.149 10.0177H263.811L281.788 50.0089H270.959Z" fill="#D31145"/>
</svg>
