<svg width="44" height="32" viewBox="0 0 44 32" fill="none" xmlns="http://www.w3.org/2000/svg">
<path fill-rule="evenodd" clip-rule="evenodd" d="M12.0572 6.058C13.6951 3.544 17.3599 0 22.9773 0C27.1405 0 30.1114 2.16 31.9819 4.66C33.1937 6.28477 34.0503 8.15702 34.4935 10.15C36.0278 10.404 37.8064 11.01 39.3896 12.178C41.7253 13.896 43.5 16.746 43.5 21C43.5 25.252 41.7253 28.102 39.3896 29.824C37.1536 31.47 34.5286 32 32.75 32H23.9545V18.828L26.4818 21.414C26.8504 21.7783 27.3441 21.9799 27.8566 21.9753C28.3691 21.9708 28.8593 21.7605 29.2217 21.3896C29.5841 21.0188 29.7896 20.5172 29.7941 19.9928C29.7985 19.4684 29.6015 18.9632 29.2455 18.586L23.3819 12.586C23.0153 12.2111 22.5183 12.0004 22 12.0004C21.4817 12.0004 20.9847 12.2111 20.6181 12.586L14.7545 18.586C14.5678 18.7705 14.4189 18.9912 14.3165 19.2352C14.214 19.4792 14.1601 19.7416 14.1579 20.0072C14.1556 20.2728 14.2051 20.5361 14.3033 20.7819C14.4016 21.0277 14.5468 21.251 14.7303 21.4388C14.9138 21.6266 15.132 21.7751 15.3722 21.8756C15.6124 21.9762 15.8698 22.0268 16.1293 22.0245C16.3889 22.0222 16.6453 21.967 16.8838 21.8622C17.1223 21.7574 17.3379 21.605 17.5182 21.414L20.0455 18.828V32H13.2045C11.0995 32 7.98591 31.37 5.34336 29.424C2.60114 27.402 0.5 24.052 0.5 19C0.5 13.948 2.60114 10.598 5.34336 8.576C7.54027 6.958 10.0597 6.25 12.0572 6.056V6.058Z" fill="#2E5D7F"/>
</svg>
